<svg xmlns="http://www.w3.org/2000/svg" viewBox="0 0 512 512" width="100%" height="100%">
  <defs>
    <linearGradient id="appBg" x1="0%" y1="0%" x2="100%" y2="100%">
      <stop offset="0%" stop-color="#FF3366" />
      <stop offset="100%" stop-color="#7C3AED" />
    </linearGradient>

    <filter id="dropShadow" x="-20%" y="-20%" width="140%" height="140%">
      <feDropShadow dx="0" dy="6" stdDeviation="10" flood-color="#000000" flood-opacity="0.25" />
    </filter>
  </defs>

  <rect x="16" y="16" width="480" height="480" rx="100" fill="url(#appBg)" />
  <rect x="16" y="16" width="480" height="480" rx="100" fill="none" stroke="#FFFFFF" stroke-width="4" stroke-opacity="0.15" />

  <g filter="url(#dropShadow)">
    
    <path d="M 105 240 C 105 -20, 407 -20, 407 240" fill="none" stroke="#FFFFFF" stroke-width="16" stroke-linecap="round" />
    
    <rect x="90" y="240" width="30" height="80" rx="15" fill="#FFFFFF" />
    <rect x="120" y="250" width="10" height="60" rx="5" fill="#FFFFFF" opacity="0.6" />
    
    <rect x="392" y="240" width="30" height="80" rx="15" fill="#FFFFFF" />
    <rect x="382" y="250" width="10" height="60" rx="5" fill="#FFFFFF" opacity="0.6" />

    <path d="M 256 350 Q 196 320 140 350 L 140 280 Q 196 250 256 280 Q 316 250 372 280 L 372 350 Q 316 320 256 350 Z" 
          fill="none" stroke="#FFFFFF" stroke-width="16" stroke-linejoin="round" stroke-linecap="round" />
    <line x1="256" y1="280" x2="256" y2="350" stroke="#FFFFFF" stroke-width="16" stroke-linecap="round" />

    <circle cx="224" cy="240" r="12" fill="#FFFFFF" />
    <circle cx="280" cy="210" r="12" fill="#FFFFFF" />
    <line x1="236" y1="240" x2="236" y2="170" stroke="#FFFFFF" stroke-width="10" stroke-linecap="round" />
    <line x1="292" y1="210" x2="292" y2="140" stroke="#FFFFFF" stroke-width="10" stroke-linecap="round" />
    <line x1="236" y1="170" x2="292" y2="140" stroke="#FFFFFF" stroke-width="12" stroke-linecap="round" />

    <path d="M 130 90 Q 140 90 140 80 Q 140 90 150 90 Q 140 90 140 100 Q 140 90 130 90 Z" fill="#FFFFFF" opacity="0.9" />
    <path d="M 390 140 Q 400 140 400 130 Q 400 140 410 140 Q 400 140 400 150 Q 400 140 390 140 Z" fill="#FFFFFF" opacity="0.7" />
    
  </g>
</svg>
